<svg width="12" height="18" viewBox="0 0 12 18" fill="none" xmlns="http://www.w3.org/2000/svg">
<path d="M10.9995 18.0003C10.7727 18.0002 10.5526 17.9229 10.3755 17.7813L0.375469 9.78129C0.258315 9.68761 0.163737 9.56877 0.0987425 9.43358C0.0337475 9.29838 0 9.1503 0 9.00029C0 8.85029 0.0337475 8.7022 0.0987425 8.56701C0.163737 8.43182 0.258315 8.31298 0.375469 8.21929L10.3755 0.219293C10.478 0.137217 10.5958 0.0761454 10.7219 0.0395658C10.8481 0.00298625 10.9802 -0.00838503 11.1108 0.00610091C11.2413 0.0205868 11.3678 0.0606466 11.4828 0.123993C11.5979 0.187339 11.6994 0.272731 11.7815 0.375293C11.8635 0.477855 11.9246 0.59558 11.9612 0.721744C11.9978 0.847909 12.0091 0.980042 11.9947 1.1106C11.9802 1.24116 11.9401 1.36759 11.8768 1.48267C11.8134 1.59774 11.728 1.69922 11.6255 1.78129L2.59947 9.00029L11.6235 16.2193C11.7853 16.3487 11.9029 16.5252 11.9601 16.7243C12.0173 16.9234 12.0112 17.1354 11.9427 17.331C11.8742 17.5265 11.7466 17.6959 11.5777 17.8158C11.4087 17.9357 11.2067 18.0002 10.9995 18.0003Z" fill="#E4FF1E"/>
</svg>
