<svg width="24" height="24" viewBox="0 0 24 24" fill="none" xmlns="http://www.w3.org/2000/svg">
<path d="M22.9091 24H1.09091C0.801582 24 0.524105 23.8851 0.31952 23.6805C0.114935 23.4759 0 23.1984 0 22.9091V1.09091C0 0.801582 0.114935 0.524105 0.31952 0.31952C0.524105 0.114935 0.801582 0 1.09091 0C1.38024 0 1.65771 0.114935 1.8623 0.31952C2.06688 0.524105 2.18182 0.801582 2.18182 1.09091V21.8182H22.9091C23.1984 21.8182 23.4759 21.9331 23.6805 22.1377C23.8851 22.3423 24 22.6198 24 22.9091C24 23.1984 23.8851 23.4759 23.6805 23.6805C23.4759 23.8851 23.1984 24 22.9091 24Z" fill="white"/>
<path d="M5.45441 19.6365C5.25992 19.6365 5.06898 19.5844 4.90136 19.4858C4.73374 19.3871 4.59554 19.2455 4.50108 19.0754C4.40662 18.9054 4.35932 18.7133 4.3641 18.5188C4.36887 18.3244 4.42554 18.1348 4.52823 17.9696L7.72023 12.8369C8.00788 12.3254 8.41905 11.8941 8.91622 11.5823C9.41338 11.2706 9.9807 11.0883 10.5664 11.0521C11.1885 10.9836 11.8178 11.0736 12.3958 11.3137C12.9737 11.5539 13.4815 11.9364 13.8719 12.4256C14.0589 12.644 14.2944 12.8157 14.5596 12.9269C14.8247 13.0381 15.1123 13.0857 15.3991 13.066C15.6752 13.0653 15.9471 12.9987 16.1922 12.8717C16.4374 12.7448 16.6487 12.5612 16.8086 12.3361L20.954 6.96887C21.1311 6.74001 21.3918 6.59087 21.6789 6.55425C21.9659 6.51763 22.2557 6.59653 22.4846 6.7736C22.7135 6.95067 22.8626 7.2114 22.8992 7.49843C22.9358 7.78546 22.8569 8.07529 22.6799 8.30414L18.5911 13.5929C18.2419 14.094 17.7788 14.5052 17.2399 14.7927C16.7009 15.0802 16.1015 15.2358 15.4908 15.2467C14.8541 15.2842 14.2176 15.1684 13.6349 14.9092C13.0521 14.6499 12.5401 14.2546 12.1417 13.7565C11.9726 13.5628 11.7589 13.4132 11.519 13.3206C11.2791 13.2281 11.0203 13.1953 10.765 13.2252C10.5314 13.2339 10.3037 13.3012 10.103 13.4209C9.90225 13.5406 9.73486 13.7089 9.61623 13.9103L6.38169 19.1216C6.28369 19.2792 6.1471 19.4092 5.98484 19.4993C5.82258 19.5894 5.64001 19.6366 5.45441 19.6365Z" fill="white"/>
</svg>
