<svg width="22" height="18" viewBox="0 0 22 18" fill="none" xmlns="http://www.w3.org/2000/svg">
<path d="M10.7536 10.4784L1.6253 17.781C1.52273 17.8631 1.40501 17.9241 1.27884 17.9607C1.15268 17.9973 1.02055 18.0087 0.889986 17.9942C0.759427 17.9797 0.632999 17.9396 0.517922 17.8763C0.402844 17.813 0.301372 17.7276 0.219296 17.625C0.137219 17.5224 0.0761476 17.4047 0.039568 17.2785C0.0029884 17.1524 -0.00838241 17.0203 0.00610352 16.8897C0.0205894 16.7591 0.0606487 16.6327 0.123995 16.5176C0.187341 16.4025 0.272733 16.3011 0.375296 16.219L9.40129 9L0.377293 1.781C0.215479 1.6516 0.0978516 1.47514 0.0406671 1.276C-0.0165174 1.07686 -0.0104347 0.864876 0.0580735 0.669342C0.126582 0.473808 0.254133 0.304382 0.4231 0.184477C0.592067 0.0645721 0.794105 0.000110003 1.00129 0C1.22811 0.000120466 1.44815 0.0773453 1.62529 0.219L10.7539 7.52191L19.8822 0.219293C19.9848 0.137217 20.1025 0.0761454 20.2287 0.0395659C20.3548 0.00298629 20.487 -0.00838499 20.6175 0.00610095C20.7481 0.0205869 20.8745 0.0606466 20.9896 0.123993C21.1047 0.187339 21.2061 0.272731 21.2882 0.375293C21.3703 0.477855 21.4314 0.59558 21.4679 0.721744C21.5045 0.847909 21.5159 0.980042 21.5014 1.1106C21.4869 1.24116 21.4469 1.36759 21.3835 1.48267C21.3202 1.59774 21.2348 1.69922 21.1322 1.78129L12.1062 9.00029L21.1302 16.2193C21.292 16.3487 21.4096 16.5252 21.4668 16.7243C21.524 16.9234 21.5179 17.1354 21.4494 17.331C21.3809 17.5265 21.2534 17.6959 21.0844 17.8158C20.9154 17.9357 20.7134 18.0002 20.5062 18.0003C20.2794 18.0002 20.0593 17.9229 19.8822 17.7813L10.7536 10.4784Z" fill="#E4FF1E"/>
</svg>
