<svg width="28" height="24" viewBox="0 0 28 24" fill="none" xmlns="http://www.w3.org/2000/svg">
<path d="M19.92 24H7.43997C7.22933 24 7.0224 23.9445 6.83999 23.8392C6.65757 23.7339 6.50609 23.5824 6.40077 23.4L0.16077 12.6C0.055448 12.4176 0 12.2106 0 12C0 11.7894 0.055448 11.5824 0.16077 11.4L6.40077 0.6C6.50609 0.417581 6.65757 0.266099 6.83999 0.160777C7.0224 0.0554552 7.22933 5.35106e-06 7.43997 0H19.92C20.1306 5.35106e-06 20.3375 0.0554552 20.52 0.160777C20.7024 0.266099 20.8539 0.417581 20.9592 0.6L27.1992 11.4C27.3045 11.5824 27.3599 11.7894 27.3599 12C27.3599 12.2106 27.3045 12.4176 27.1992 12.6L20.9592 23.4C20.8539 23.5824 20.7024 23.7339 20.52 23.8392C20.3375 23.9445 20.1306 24 19.92 24ZM8.14197 21.6H19.2276L24.7692 12L19.2228 2.4H8.13717L2.59557 12L8.14197 21.6Z" fill="white"/>
<path d="M13.6799 16.8C12.7305 16.8 11.8025 16.5185 11.0131 15.9911C10.2238 15.4636 9.60856 14.714 9.24526 13.8369C8.88196 12.9598 8.78691 11.9947 8.97212 11.0636C9.15732 10.1325 9.61448 9.27719 10.2858 8.6059C10.9571 7.93461 11.8123 7.47745 12.7435 7.29225C13.6746 7.10704 14.6397 7.20209 15.5168 7.56539C16.3939 7.92869 17.1435 8.54392 17.6709 9.33328C18.1984 10.1226 18.4799 11.0507 18.4799 12C18.4799 13.2731 17.9742 14.494 17.074 15.3941C16.1738 16.2943 14.9529 16.8 13.6799 16.8ZM13.6799 9.60001C13.2052 9.60001 12.7412 9.74077 12.3465 10.0045C11.9518 10.2682 11.6442 10.643 11.4626 11.0816C11.2809 11.5201 11.2334 12.0027 11.326 12.4682C11.4186 12.9338 11.6472 13.3614 11.9828 13.6971C12.3185 14.0327 12.7461 14.2613 13.2117 14.3539C13.6772 14.4465 14.1598 14.399 14.5983 14.2173C15.0369 14.0357 15.4117 13.7281 15.6754 13.3334C15.9391 12.9387 16.0799 12.4747 16.0799 12C16.0799 11.3635 15.827 10.753 15.3769 10.303C14.9269 9.85287 14.3164 9.60001 13.6799 9.60001Z" fill="white"/>
</svg>
