<svg width="22" height="16" viewBox="0 0 22 16" fill="none" xmlns="http://www.w3.org/2000/svg">
<path d="M15.4999 3H3.99992L5.59992 1.8C5.81209 1.64087 5.95236 1.40398 5.98987 1.14143C6.02737 0.878874 5.95905 0.612177 5.79992 0.400003C5.64079 0.18783 5.40389 0.0475619 5.14134 0.0100546C4.87879 -0.0274526 4.61209 0.0408738 4.39992 0.200004L0.399916 3.2C0.382916 3.212 0.376916 3.233 0.360916 3.247C0.285059 3.31359 0.219956 3.39151 0.167916 3.478C0.142811 3.50983 0.119763 3.54324 0.0989161 3.578C0.0338639 3.70828 0 3.85189 0 3.9975C0 4.14312 0.0338639 4.28673 0.0989161 4.417C0.119813 4.45174 0.142858 4.48514 0.167916 4.517C0.219956 4.60349 0.285059 4.68141 0.360916 4.748C0.376916 4.761 0.382916 4.782 0.399916 4.795L4.39992 7.795C4.61209 7.95413 4.87879 8.02246 5.14134 7.98495C5.40389 7.94745 5.64079 7.80718 5.79992 7.595C5.95905 7.38283 6.02737 7.11613 5.98987 6.85358C5.95236 6.59103 5.81209 6.35413 5.59992 6.195L3.99992 5H15.4999C16.6934 5 17.838 5.47411 18.6819 6.31802C19.5258 7.16194 19.9999 8.30653 19.9999 9.5C19.9999 10.6935 19.5258 11.8381 18.6819 12.682C17.838 13.5259 16.6934 14 15.4999 14H13.9999C13.7347 14 13.4803 14.1054 13.2928 14.2929C13.1053 14.4804 12.9999 14.7348 12.9999 15C12.9999 15.2652 13.1053 15.5196 13.2928 15.7071C13.4803 15.8946 13.7347 16 13.9999 16H15.4999C17.2238 16 18.8771 15.3152 20.0961 14.0962C21.3151 12.8772 21.9999 11.2239 21.9999 9.5C21.9999 7.7761 21.3151 6.1228 20.0961 4.90381C18.8771 3.68482 17.2238 3 15.4999 3Z" fill="#E4FF1E"/>
</svg>
